<svg width="67" height="12" viewBox="0 0 67 12" fill="none" xmlns="http://www.w3.org/2000/svg">
<path d="M4.25468 6.56348C3.12903 6.23991 2.30872 5.84342 1.79375 5.37402C1.28333 4.90007 1.02812 4.31673 1.02812 3.62402C1.02812 2.84017 1.3403 2.19303 1.96465 1.68262C2.59355 1.16764 3.40931 0.910156 4.41191 0.910156C5.0955 0.910156 5.7039 1.04232 6.23711 1.30664C6.77487 1.57096 7.18958 1.93555 7.48125 2.40039C7.77747 2.86523 7.92558 3.37337 7.92558 3.9248H6.60625C6.60625 3.32324 6.41484 2.85156 6.03203 2.50977C5.64922 2.16341 5.10918 1.99023 4.41191 1.99023C3.76478 1.99023 3.25892 2.13379 2.89433 2.4209C2.53431 2.70345 2.35429 3.09766 2.35429 3.60352C2.35429 4.00911 2.52519 4.35319 2.86699 4.63574C3.21334 4.91374 3.79896 5.16895 4.62383 5.40137C5.45325 5.63379 6.10039 5.89128 6.56523 6.17383C7.03463 6.45182 7.38099 6.77767 7.60429 7.15137C7.83216 7.52507 7.94609 7.96484 7.94609 8.4707C7.94609 9.27734 7.63164 9.92448 7.00273 10.4121C6.37383 10.8952 5.533 11.1367 4.48027 11.1367C3.79668 11.1367 3.15866 11.0068 2.56621 10.7471C1.97376 10.4827 1.51575 10.1227 1.19218 9.66699C0.873174 9.21126 0.713669 8.69401 0.713669 8.11523H2.033C2.033 8.7168 2.25403 9.19303 2.69609 9.54395C3.14271 9.8903 3.73743 10.0635 4.48027 10.0635C5.17298 10.0635 5.7039 9.9222 6.07304 9.63965C6.44218 9.3571 6.62675 8.97201 6.62675 8.48438C6.62675 7.99674 6.45586 7.62077 6.11406 7.35645C5.77226 7.08757 5.15247 6.82324 4.25468 6.56348ZM13.3428 11H12.0303V1.04688H13.3428V11ZM25.3977 9.69434C25.0604 10.1774 24.5887 10.5397 23.9826 10.7812C23.3811 11.0182 22.6792 11.1367 21.8771 11.1367C21.0659 11.1367 20.3459 10.9476 19.717 10.5693C19.0881 10.1865 18.6005 9.64421 18.2541 8.94238C17.9123 8.24056 17.7368 7.42708 17.7277 6.50195V5.63379C17.7277 4.13444 18.0764 2.97233 18.7736 2.14746C19.4755 1.32259 20.4598 0.910156 21.7268 0.910156C22.7658 0.910156 23.6021 1.17676 24.2355 1.70996C24.869 2.23861 25.2564 2.99056 25.3977 3.96582H24.0852C23.8391 2.64876 23.0552 1.99023 21.7336 1.99023C20.854 1.99023 20.1864 2.30013 19.7307 2.91992C19.2795 3.53516 19.0516 4.42839 19.0471 5.59961V6.41309C19.0471 7.52962 19.3023 8.41829 19.8127 9.0791C20.3231 9.73535 21.0135 10.0635 21.884 10.0635C22.3762 10.0635 22.8068 10.0088 23.176 9.89941C23.5451 9.79004 23.8505 9.60547 24.092 9.3457V7.11035H21.7883V6.04395H25.3977V9.69434ZM37.5414 11H36.2221L31.2113 3.33008V11H29.892V1.04688H31.2113L36.2357 8.75098V1.04688H37.5414V11ZM54.952 1.04688V7.81445C54.9474 8.75326 54.6512 9.52116 54.0633 10.1182C53.4799 10.7152 52.687 11.0501 51.6844 11.123L51.3357 11.1367C50.2465 11.1367 49.3784 10.8428 48.7312 10.2549C48.0841 9.66699 47.756 8.85807 47.7469 7.82812V1.04688H49.0457V7.78711C49.0457 8.50716 49.2439 9.06771 49.6404 9.46875C50.0369 9.86523 50.602 10.0635 51.3357 10.0635C52.0786 10.0635 52.646 9.86523 53.0379 9.46875C53.4344 9.07227 53.6326 8.514 53.6326 7.79395V1.04688H54.952ZM60.6357 7.10352V11H59.3232V1.04688H62.9941C64.0833 1.04688 64.9355 1.32487 65.5508 1.88086C66.1706 2.43685 66.4805 3.17285 66.4805 4.08887C66.4805 5.05501 66.1774 5.80013 65.5713 6.32422C64.9697 6.84375 64.1061 7.10352 62.9805 7.10352H60.6357ZM60.6357 6.03027H62.9941C63.696 6.03027 64.2337 5.86621 64.6074 5.53809C64.9811 5.2054 65.168 4.72689 65.168 4.10254C65.168 3.51009 64.9811 3.03613 64.6074 2.68066C64.2337 2.3252 63.721 2.14062 63.0693 2.12695H60.6357V6.03027Z" fill="white"/>
</svg>
